# xmcd
# 
# Track frame offsets:
#     150
#     18919
#     25895
#     27608
#     31037
#     34162
#     48324
#     63585
#     81248
#     100303
#     116620
#     134971
#     141628
#     147701
#     153537
#     168267
#     188729
#     206466
#     219478
#     233794
#     245538
#     264625
#     273886
#     280509
#     286448
#     294448
#     310395
#     315109
#     320771
# 
# Disc length: 4362
# 
# Revision: 1
# Processed by: cddbd v1.5.2PL0 Copyright (c) Steve Scherf et al.
# Submitted via: BonkEnc v1.0.15
# 
DISCID=ba11081d
DTITLE=Country wat skop - Country wat skop
DYEAR=2002
DGENRE=Country
TTITLE0=Rhinestone Cowboy - The Cambells
TTITLE1=The way I mate
TTITLE2=Duelling banjos
TTITLE3=Grandma's featherbed
TTITLE4=Cotton eye Joe
TTITLE5=Witchdoctor
TTITLE6=Country roads
TTITLE7=let your love flow
TTITLE8=Jolene
TTITLE9=Cotton fields
TTITLE10=Wheels on fire
TTITLE11=Dont be stupid
TTITLE12=You're still the one
TTITLE13=That dont impress me much
TTITLE14=Blue train
TTITLE15=Smile
TTITLE16=Hearts on fire
TTITLE17=Achy breaky heart
TTITLE18=Silver threads and golden needles
TTITLE19=hillbilly rock
TTITLE20=Breathless
TTITLE21=Have you ever seen the rain
TTITLE22=Proud mary
TTITLE23=Up around the bend
TTITLE24=Midnight special
TTITLE25=One last kiss
TTITLE26=Chattahoochee
TTITLE27=Boot scootin boogie
TTITLE28=Seacruice
EXTD=
EXTT0=
EXTT1=
EXTT2=
EXTT3=
EXTT4=
EXTT5=
EXTT6=
EXTT7=
EXTT8=
EXTT9=
EXTT10=
EXTT11=
EXTT12=
EXTT13=
EXTT14=
EXTT15=
EXTT16=
EXTT17=
EXTT18=
EXTT19=
EXTT20=
EXTT21=
EXTT22=
EXTT23=
EXTT24=
EXTT25=
EXTT26=
EXTT27=
EXTT28=
PLAYORDER=
